<?xml version="1.0" encoding="utf-8"?>
<!-- Generator: Adobe Illustrator 17.1.0, SVG Export Plug-In . SVG Version: 6.00 Build 0)  -->
<!DOCTYPE svg PUBLIC "-//W3C//DTD SVG 1.1//EN" "http://www.w3.org/Graphics/SVG/1.1/DTD/svg11.dtd">
<svg version="1.1" id="Layer_1" xmlns="http://www.w3.org/2000/svg" xmlns:xlink="http://www.w3.org/1999/xlink" x="0px" y="0px"
	 viewBox="0 0 300 142" enable-background="new 0 0 300 142" xml:space="preserve">
<g transform="translate(0.000000,142.000000) scale(0.100000,-0.100000)" opacity="0.5">
	<path d="M483,1384c-3-9-13-14-24-11c-12,3-19-3-24-20c-5-20-10-24-28-19c-90,26-169,14-221-33c-111-102-39-239,99-186
		c54,20,69,37,21,24c-36-10-84,2-98,24c-11,18-10,63,3,91c25,54,131,53,219-2l45-28l1,56c0,31,8,71,17,88c8,18,11,32,6,32
		S487,1393,483,1384z"/>
	<path d="M2515,1367c8-20,15-59,15-87c0-46,10-64,24-41c3,5,26,18,51,30c60,28,147,31,174,7c23-21,35-67,26-97c-9-27-67-51-102-43
		c-39,10-20-12,23-26c43-15,99-5,125,21c45,45,13,150-60,193c-36,21-118,27-179,14c-29-7-34-5-42,18c-6,14-15,22-21,19
		c-5-4-19,1-30,11C2500,1403,2500,1403,2515,1367z"/>
	<path d="M553,1307c-30-10-33-15-39-69c-4-32-11-58-16-58c-6,0-22,8-36,19c-36,24-118,51-158,51c-37,0-58-21-49-50c9-28,23-25,18,4
		c-3,15,1,25,11,29c23,9,105-18,132-44c31-29,32-59,2-59s-96-33-138-69l-35-30l33,9l32,9V929c0-87,4-128,15-149c19-36,52-57,68-41
		c8,8,7,11-5,11c-17,0-32,26-22,41c3,6,0,17-7,25c-17,21-15,114,4,150c26,51,61,74,135,91l70,17l13,45c21,79,60,150,90,168
		c26,15,27,19,12,25C657,1322,591,1319,553,1307z"/>
	<path d="M2317,1313c-15-4-12-8,15-26c36-24,73-92,91-167l11-47l60-11c32-6,76-23,96-36c47-31,75-96,66-153c-15-104-19-115-40-123
		c-19-7-19-9-3-15c24-10,65,19,74,53c5,15,8,80,8,145c-1,64-1,117,0,117c0,0,15-4,33-9c17-5,32-8,32-6c0,14-129,88-161,92
		c-21,3-39,11-39,18c0,37,113,100,159,88c22-6,29-37,11-46c-6-3-5-4,2-3c7,2,13,16,13,32c0,27-3,29-39,32c-42,4-147-31-167-54
		c-24-29-37-15-46,48c-9,68-2,63-108,72C2358,1317,2327,1316,2317,1313z"/>
	<path d="M1075,1243c-36-37-47-67-46-136c0-53-2-57-20-52c-19,6-19,5,2-51l22-58l-29-24c-16-13-23-21-16-17c8,4,53-1,102-10
		c83-16,90-16,124,0c57,27,122,138,100,172c-17,27-29,18-26-17c4-44-33-90-72-90c-35,0-90,52-111,103c-20,49-24,152-6,185
		C1115,1277,1109,1276,1075,1243z"/>
	<path d="M1907,1250c16-51,8-163-15-207c-25-48-69-83-104-83c-44,0-93,75-68,105c16,20-5,28-25,9c-36-36,50-172,120-190
		c12-3,57,2,100,11s85,13,94,10c9-4,6,4-9,20l-24,25l23,63c12,34,16,56,9,49c-24-24-36-14-31,27c8,61-4,105-43,147
		C1904,1269,1900,1271,1907,1250z"/>
	<path d="M868,1223c-42-34-47-42-48-79c0-76-50-112-115-82c-45,20-23,88,26,75c28-8,47,33,31,68c-12,26-52,36-52,13c0-7-19-29-42-49
		c-38-33-42-40-42-86c-1-64,18-87,90-108c47-13,56-14,71-1c10,8,33,27,51,41c17,15,32,32,32,39c0,6,11,27,24,46c18,27,21,38,12,52
		c-8,14-7,29,5,63c9,25,14,45,10,45C918,1260,894,1243,868,1223z"/>
	<path d="M2086,1244c4-10,9-41,10-69c1-61,24-105,87-169l48-48l47,12c69,19,102,53,102,107c0,37-7,50-47,97c-27,30-53,55-58,55
		c-18,2-35-21-35-45c0-40,9-51,40-46c24,3,32-1,42-23c11-25,10-29-11-46c-13-11-38-19-57-19c-45,0-64,29-64,99c0,30-3,51-6,48
		c-4-4-23,6-43,22C2085,1262,2075,1267,2086,1244z"/>
	<path d="M1247,1220c-32-25-44-81-28-118l12-26l12,25c19,37,78,39,106,3c23-30,28-83,9-117c-6-12-31-44-55-71c-53-59-82-109-58-100
		c12,5,14-6,9-73c-10-133,26-260,88-306c42-32,91-17,123,37c33,57,34,114,0,150c-13,14-33,26-44,26c-24,0-51-25-51-47
		c0-14,2-14,19,1c26,24,54,17,65-17c8-23,6-36-9-65c-22-42-50-51-96-31c-39,15-59,56-70,140c-15,102-2,136,87,230
		c43,46,74,89,74,101c0,15,5,19,20,15c35-9,24,42-30,133s-57,100-37,100c7,0,4,7-7,15C1356,1247,1278,1244,1247,1220z"/>
	<path d="M1631,1231c-8-5-15-20-15-33c-1-14-20-56-44-94c-23-38-45-85-48-103c-6-31-5-33,15-26c15,4,21,2,21-9c0-8,32-50,71-93
		c97-108,103-120,97-218c-8-116-44-175-109-175c-35,0-69,42-69,84c0,55,34,72,70,36c24-24,27-5,4,28c-19,27-44,28-77,2
		c-37-29-43-81-16-136c28-58,58-78,104-70c72,14,116,122,116,289c0,63,4,107,10,107c15,0-9,40-63,103c-61,70-75,112-54,161
		c24,58,109,63,122,9l7-27l13,35c15,45,8,81-22,114c-18,20-32,25-71,25C1667,1240,1639,1236,1631,1231z"/>
	<path d="M90,1021c-65-18-97-153-47-199c30-28,62-28,81,0c22,31,20,45-2,25c-59-54-104,42-46,100c20,20,31,24,56,19
		c63-13,88-58,96-171c6-98,0-110-97-218c-39-43-71-85-71-93c0-11-6-13-21-9c-20,7-21,5-15-26c3-18,24-63,46-99c21-36,43-77,49-92
		c9-23,8-26-7-21c-11,3-8-1,6-12c31-23,101-24,135-3c33,23,50,78,35,120l-11,31l-14-27c-15-28-57-35-93-16c-45,24-43,118,3,169
		c57,62,74,83,90,111c15,25,16,29,2,24c-13-5-15,8-15,97c0,58-7,128-14,158c-17,61-59,131-80,131c-8,0-20,2-28,4
		C121,1026,104,1025,90,1021z"/>
	<path d="M2865,1023c-32-8-51-30-81-96c-26-57-29-72-29-180c0-90-3-116-12-112c-7,2-13,2-13-2c0-9,80-115,106-139
		c40-38,44-123,8-159c-24-24-86-16-99,13c-13,30-22,28-30-8c-21-95,61-163,151-125c28,11,35,18,25,24c-15,9-9,22,53,125
		c41,68,48,117,16,109c-15-4-20,0-20,16c0,14-28,51-71,97c-87,92-102,125-94,207c10,96,30,142,71,162c48,23,81,13,101-30
		c30-63-16-124-61-80c-13,13-16,14-16,2c0-8,9-22,20-32c26-24,69-11,87,25C3020,925,2948,1042,2865,1023z"/>
	<path d="M500,998c-53-37-74-72-74-127c0-67,23-101,70-101c38,0,84,36,84,66s-34,93-51,94c-26,0-29-12-9-38c35-44,21-92-26-92
		c-52,0-74,98-31,138c38,36,83,47,112,28c51-33,70-116,46-196c-15-48-14-85,3-99c11-9,12-6,8,14c-7,39,18,155,34,155c8,0,14-6,15-12
		c0-7,4-3,9,8c6,15,24,26,60,35l51,13l-78,27c-61,22-85,37-113,69C570,1026,547,1030,500,998z"/>
	<path d="M2389,977c-29-34-50-47-112-68l-76-25l50-13c28-7,56-22,64-34s15-16,15-9c0,6,4,12,9,12c14,0,43-121,37-154
		c-6-29-5-30,10-14c15,15,16,23,4,75c-36,154,11,254,105,223c42-14,65-40,71-81c9-63-42-112-82-79c-19,16-18,76,1,84
		c25,9,18,36-10,36c-17,0-25-5-25-18c0-10-7-27-15-39c-12-17-12-27-4-52c13-36,35-51,76-51c36,0,49,9,62,43c26,67,3,137-58,182
		C2460,1032,2431,1028,2389,977z"/>
	<path d="M876,768c7-31-23-168-37-168c-5,0-9,5-9,11s-12,1-27-10c-14-12-44-24-66-28l-40-6l79-28c62-22,86-36,114-68
		c42-49,71-52,121-16c45,33,69,80,69,133c0,74-63,115-118,76c-35-24-46-62-27-90c8-13,15-30,15-38c0-15,27-29,41-20c14,8,11,31-6,38
		c-9,3-15,18-15,39c0,60,43,76,79,31c40-50,17-117-48-144c-88-36-153,70-117,191c20,65,20,80,1,105C870,794,870,794,876,768z"/>
	<path d="M2122,778c-16-16-15-62,2-119c22-71-3-152-55-180c-29-15-93,4-114,34c-34,48-8,137,40,137c45,0,60-65,23-100
		c-23-21-14-46,13-35c16,7,49,73,49,99s-46,66-75,66c-42,0-64-17-75-60c-16-60,1-111,52-154c58-50,97-49,131,3c21,31,39,43,97,65
		c39,14,79,26,88,27c9,0-6,6-33,13c-62,15-75,22-75,44c-1,15-2,15-11-1c-6-9-14-15-18-12c-12,7-34,131-29,160
		C2138,794,2138,794,2122,778z"/>
	<path d="M1113,713c-19-7-16-21,4-19c18,1,29-32,40-120c6-53-24-125-63-150c-15-10-56-26-91-35l-65-16l-25-74c-27-80-63-136-97-149
		c-20-8-20-8,6-15c24-6,79-3,143,8c16,3,22,15,28,63c5,32,10,60,11,62c2,1,30-12,62-28c111-58,189-59,182-3c-2,14-10,28-18,31
		c-12,4-13,2-2-9c24-25,14-39-29-39c-46,0-72,11-111,48c-38,35-36,52,6,52c23,0,54,13,97,43l64,42l-33,3l-32,3l6,68
		c10,99-2,175-33,211C1138,721,1134,722,1113,713z"/>
	<path d="M1857,709c-36-21-47-63-47-184V410h-26c-23,0-25-2-13-16c22-27,112-74,142-74c34,0,37-28,5-58c-29-27-70-42-114-42
		c-27,0-34,4-34,19c0,11,5,22,10,24c6,3,5,4-2,3c-6-1-16-10-22-19c-16-25,15-51,57-49c39,1,134,36,158,58c28,25,37,15,43-48
		c6-55,10-63,29-65c12-1,41-5,65-9c23-3,54-3,69,1l28,7l-26,15c-37,23-65,69-91,149l-22,71l-60,11c-64,12-97,31-129,74
		c-28,38-38,105-22,152c7,21,11,44,9,51c-7,16,22,39,38,29c10-6,9-3-1,9C1885,723,1881,723,1857,709z"/>
	<path d="M300,559c-39-16-64-44-95-109c-26-55-28-62-13-76c20-20,45-9,28,11c-24,28,24,105,64,105c36,0,84-37,107-82
		c26-51,36-153,20-199l-11-33l26,25c40,37,57,86,51,147c-6,54,5,66,31,40c7-7,3,16-10,51l-23,63l24,19l23,19h-33c-19,0-59,7-89,15
		C337,572,334,572,300,559z"/>
	<path d="M2595,554c-27-8-65-13-84-11l-34,3l28-22l27-22l-21-57c-21-55-21-56-2-50c18,5,20,1,19-53c-1-68,23-126,61-151
		c24-15,24-15,11,8c-20,38-16,140,8,193c22,50,76,98,111,98c12,0,33-12,47-27c21-23,25-35,21-66s-3-37,10-33c8,3,17,6,19,6
		c13,0,0,50-28,102c-23,43-42,65-69,79C2675,573,2663,573,2595,554z"/>
	<path d="M678,441c-25-25-49-56-53-68c-3-11-12-26-19-32c-9-8-12-25-9-51c3-21,1-52-5-69c-14-39-5-39,38-1c19,16,41,29,48,30
		c8,0,12,18,12,55c0,64,22,95,68,95c30,0,72-32,72-54s-28-39-54-34c-16,3-27,0-30-9c-10-24-7-58,6-71c15-15,38-16,38-1
		c0,6,20,29,45,51c41,37,45,43,45,87c0,58-23,84-96,106c-27,8-51,14-54,14C727,488,704,467,678,441z"/>
	<path d="M2240,480c-8-5-25-10-37-10s-35-11-50-24c-24-21-28-31-27-77c0-48,3-54,42-88c23-20,42-43,42-53c0-23,39-11,51,16
		c15,33-4,76-31,69c-45-12-67,44-28,71c59,41,118,0,118-83c1-44,3-48,48-78c27-18,51-33,54-33c4,0-1,18-9,40c-12,29-13,46-6,62
		c12,27-13,71-77,137c-24,25-43,49-42,54C2291,493,2258,491,2240,480z"/>
	<path d="M1205,327l-50-24l56,5c49,4,60,1,79-18c18-18,21-30,17-57c-10-58-31-73-102-73c-50,0-73,6-119,30l-56,30v-50
		c0-28-7-67-15-87c-15-36-15-36,4-19c11,10,25,15,30,11c6-3,15,5,21,19c8,23,13,25,42,18c142-31,258,33,258,143
		C1370,336,1294,369,1205,327z"/>
	<path d="M1683,335c-56-24-68-77-33-146c36-70,125-103,219-81c52,12,71,3,71-32c0-17,2-18,10-6c7,12,12,11,31-5c22-19,22-19,15-1
		c-16,44-27,112-21,133c3,13,4,23,2,23s-28-13-58-30c-44-24-66-30-120-30c-60,0-68,3-83,25c-22,34-21,88,3,109c15,14,33,17,70,15
		c28-2,51-3,51-1c0,7-87,42-105,41C1724,349,1701,343,1683,335z"/>
</g>
</svg>
